<svg id="md3" xmlns="http://www.w3.org/2000/svg" width="1em" height="1em" viewBox="0 0 420 408.82" fill="currentColor"><g id="md3-2" data-name="md3"><path id="left" d="M170.38,165.76a15.84,15.84,0,0,0-4.64-11.2L13.51,2.33A7.92,7.92,0,0,0,0,7.93V403.21a5.6,5.6,0,0,0,5.6,5.6H164.78a5.6,5.6,0,0,0,5.6-5.6Z"/><rect id="line3" x="249.62" y="381" width="170.38" height="27.82" rx="5.6"/><rect id="line2" x="249.62" y="334.64" width="170.38" height="27.81" rx="5.6"/><rect id="line1" x="249.62" y="288.29" width="170.38" height="27.81" rx="5.6"/><path id="right" d="M420,7.93a7.92,7.92,0,0,0-13.51-5.6L254.26,154.56a15.84,15.84,0,0,0-4.64,11.2v98.38a5.6,5.6,0,0,0,5.6,5.6H414.4a5.6,5.6,0,0,0,5.6-5.6Z"/></g></svg>