<svg xmlns="http://www.w3.org/2000/svg" width="2em" height="0.688em" viewBox="0 0 100 34.4" fill="currentColor"><g><path vector-effect="non-scaling-stroke" d="M53.72 29.104H42.84L53.426 5.396V2.644H40.3v2.752h10.076L39.835 29.104v2.752H53.72zm6.817-23.708h9.949V2.644H57.489v29.212h12.997v-2.752h-9.949v-10.71h8.552v-2.795h-8.552zm14.352-2.752v29.212h3.048V2.644zM91.146 19.07l4.826 12.786h3.302L94.11 18.605c2.88-.96 4.319-3.528 4.319-7.705 0-2.795-.586-4.869-1.757-6.224-1.172-1.355-3.041-2.032-5.61-2.032h-7.705v29.212h3.09V19.07zm-4.7-2.71V5.397h4.573c1.552 0 2.66.459 3.323 1.376.664.917.995 2.293.995 4.128 0 1.806-.346 3.168-1.037 4.085-.692.917-1.785 1.376-3.281 1.376zM33.69 33.667H5.035l6.038-6.038H33.69zM.858.833h28.645l-6.021 6.022H.857zm16.818 11.828L.857 29.478V12.661zm-.797 9.162L33.69 5.01v16.813z"/></g></svg>